<svg version="1.1" id="Layer_1" xmlns="http://www.w3.org/2000/svg" xmlns:xlink="http://www.w3.org/1999/xlink" x="0px" y="0px"
	 width="100%" viewBox="0 0 510 510" enable-background="new 0 0 510 510" xml:space="preserve">
<path fill="#F2E8C6" opacity="1.000000" stroke="none" 
	d="
M511.000000,140.000000 
	C511.000000,263.969727 511.000000,387.439453 511.000000,510.954590 
	C341.071960,510.954590 171.143875,510.954590 1.107903,510.954590 
	C1.107903,341.113647 1.107903,171.227234 1.107903,1.170402 
	C170.999863,1.170402 340.999908,1.170402 511.000000,1.170402 
	C511.000000,47.189384 511.000000,93.344688 511.000000,140.000000 
M17.895517,495.975281 
	C175.940552,495.983429 333.985565,495.991913 492.030609,495.992889 
	C493.026123,495.992889 494.021606,495.888824 495.523956,495.887390 
	C495.627106,495.598480 495.730225,495.309570 495.975281,494.104462 
	C495.983429,336.059418 495.991913,178.014343 495.992889,19.969292 
	C495.992889,18.973787 495.888824,17.978283 495.887360,16.476011 
	C495.598450,16.372898 495.309570,16.269785 494.104462,16.024746 
	C336.059418,16.016592 178.014374,16.008133 19.969334,16.007160 
	C18.973831,16.007154 17.978329,16.111204 16.476034,16.112644 
	C16.372911,16.401541 16.269789,16.690439 16.024748,17.895548 
	C16.016592,175.940567 16.008131,333.985596 16.007158,492.030609 
	C16.007153,493.026123 16.111202,494.021606 16.112617,495.523926 
	C16.401508,495.627075 16.690397,495.730225 17.895517,495.975281 
z"/>
<path fill="#982B1C" opacity="1.000000" stroke="none" 
	d="
M495.833374,16.982780 
	C495.888824,17.978283 495.992889,18.973787 495.992889,19.969292 
	C495.991913,178.014343 495.983429,336.059418 495.737122,494.664124 
	C495.290039,495.388824 495.129425,495.592010 495.017120,495.833374 
	C494.021606,495.888824 493.026123,495.992889 492.030609,495.992889 
	C333.985565,495.991913 175.940552,495.983429 17.335884,495.737061 
	C16.611212,495.289978 16.408016,495.129395 16.166664,495.017120 
	C16.111202,494.021606 16.007153,493.026123 16.007158,492.030609 
	C16.008131,333.985596 16.016592,175.940567 16.262936,17.335892 
	C16.709974,16.611204 16.870543,16.408012 16.982826,16.166664 
	C17.978329,16.111204 18.973831,16.007154 19.969334,16.007160 
	C178.014374,16.008133 336.059418,16.016592 494.664124,16.262936 
	C495.388763,16.710022 495.591949,16.870573 495.833374,16.982780 
M67.500000,391.000000 
	C55.411037,391.000000 43.322075,391.000000 31.393137,391.000000 
	C31.393137,421.413879 31.393137,451.132385 31.393137,480.766052 
	C181.366943,480.766052 330.947510,480.766052 480.748505,480.766052 
	C480.748505,330.833740 480.748505,181.135422 480.748505,31.297680 
	C450.778748,31.297680 421.061218,31.297680 390.850006,31.297680 
	C390.850006,151.298401 390.850006,271.002411 390.850006,391.000000 
	C283.070343,391.000000 175.785172,391.000000 67.500000,391.000000 
M97.500000,286.000000 
	C75.416077,286.000000 53.332146,286.000000 31.386971,286.000000 
	C31.386971,316.404358 31.386971,346.121338 31.386971,375.772217 
	C146.354645,375.772217 260.935211,375.772217 375.754700,375.772217 
	C375.754700,260.846130 375.754700,146.147812 375.754700,31.289314 
	C345.792725,31.289314 316.076691,31.289314 285.864563,31.289314 
	C285.864563,116.283043 285.864563,200.988876 285.864563,286.000000 
	C223.078751,286.000000 160.789368,286.000000 97.500000,286.000000 
M181.000000,56.500004 
	C181.000000,97.908707 181.000000,139.317413 181.000000,181.223602 
	C130.629639,181.223602 80.920174,181.223602 31.402851,181.223602 
	C31.402851,211.439697 31.402851,241.153351 31.402851,270.757019 
	C111.386108,270.757019 190.966309,270.757019 270.739563,270.757019 
	C270.739563,190.815613 270.739563,111.117355 270.739563,31.300369 
	C240.764893,31.300369 211.051544,31.300369 181.000000,31.300369 
	C181.000000,39.565140 181.000000,47.532574 181.000000,56.500004 
z"/>
<path fill="#982B1C" opacity="1.000000" stroke="none" 
	d="
M16.729431,16.139654 
	C16.870543,16.408012 16.709974,16.611204 16.333893,16.877785 
	C16.269789,16.690439 16.372911,16.401541 16.729431,16.139654 
z"/>
<path fill="#982B1C" opacity="1.000000" stroke="none" 
	d="
M495.860352,16.729397 
	C495.591949,16.870573 495.388763,16.710022 495.122192,16.333899 
	C495.309570,16.269785 495.598450,16.372898 495.860352,16.729397 
z"/>
<path fill="#982B1C" opacity="1.000000" stroke="none" 
	d="
M16.139641,495.270508 
	C16.408016,495.129395 16.611212,495.289978 16.877768,495.666138 
	C16.690397,495.730225 16.401508,495.627075 16.139641,495.270508 
z"/>
<path fill="#982B1C" opacity="1.000000" stroke="none" 
	d="
M495.270538,495.860382 
	C495.129425,495.592010 495.290039,495.388824 495.666138,495.122253 
	C495.730225,495.309570 495.627106,495.598480 495.270538,495.860382 
z"/>
<path fill="#F2E8C6" opacity="1.000000" stroke="none" 
	d="
M68.000000,391.000000 
	C175.785172,391.000000 283.070343,391.000000 390.850006,391.000000 
	C390.850006,271.002411 390.850006,151.298401 390.850006,31.297680 
	C421.061218,31.297680 450.778748,31.297680 480.748505,31.297680 
	C480.748505,181.135422 480.748505,330.833740 480.748505,480.766052 
	C330.947510,480.766052 181.366943,480.766052 31.393137,480.766052 
	C31.393137,451.132385 31.393137,421.413879 31.393137,391.000000 
	C43.322075,391.000000 55.411037,391.000000 68.000000,391.000000 
M461.350616,46.000046 
	C442.945038,46.000046 424.539429,46.000046 406.268188,46.000046 
	C406.268188,66.397102 406.268188,85.998337 406.268188,105.684341 
	C426.256378,105.684341 445.974823,105.684341 465.997742,105.684341 
	C465.997742,86.567543 465.934387,67.764458 466.060669,48.962643 
	C466.081482,45.862747 464.454803,45.851818 461.350616,46.000046 
z"/>
<path fill="#F2E8C6" opacity="1.000000" stroke="none" 
	d="
M98.000000,286.000000 
	C160.789368,286.000000 223.078751,286.000000 285.864563,286.000000 
	C285.864563,200.988876 285.864563,116.283043 285.864563,31.289314 
	C316.076691,31.289314 345.792725,31.289314 375.754700,31.289314 
	C375.754700,146.147812 375.754700,260.846130 375.754700,375.772217 
	C260.935211,375.772217 146.354645,375.772217 31.386971,375.772217 
	C31.386971,346.121338 31.386971,316.404358 31.386971,286.000000 
	C53.332146,286.000000 75.416077,286.000000 98.000000,286.000000 
M93.487617,301.000000 
	C77.736656,301.000000 61.985691,301.000000 46.392372,301.000000 
	C46.392372,321.415405 46.392372,341.133301 46.392372,360.739563 
	C66.385033,360.739563 85.984337,360.739563 105.694824,360.739563 
	C105.694824,340.761200 105.694824,321.044586 105.694824,301.000000 
	C101.757957,301.000000 98.119331,301.000000 93.487617,301.000000 
M135.505234,361.000000 
	C150.590363,361.000000 165.675476,361.000000 180.610382,361.000000 
	C180.610382,340.589813 180.610382,320.872223 180.610382,301.257355 
	C160.620712,301.257355 141.021622,301.257355 121.301804,301.257355 
	C121.301804,321.232391 121.301804,340.948822 121.301804,361.000000 
	C125.902817,361.000000 130.205795,361.000000 135.505234,361.000000 
z"/>
<path fill="#F2E8C6" opacity="1.000000" stroke="none" 
	d="
M181.000000,56.000008 
	C181.000000,47.532574 181.000000,39.565140 181.000000,31.300369 
	C211.051544,31.300369 240.764893,31.300369 270.739563,31.300369 
	C270.739563,111.117355 270.739563,190.815613 270.739563,270.757019 
	C190.966309,270.757019 111.386108,270.757019 31.402851,270.757019 
	C31.402851,241.153351 31.402851,211.439697 31.402851,181.223602 
	C80.920174,181.223602 130.629639,181.223602 181.000000,181.223602 
	C181.000000,139.317413 181.000000,97.908707 181.000000,56.000008 
z"/>
<path fill="#982B1C" opacity="1.000000" stroke="none" 
	d="
M461.832092,46.000206 
	C464.454803,45.851818 466.081482,45.862747 466.060669,48.962643 
	C465.934387,67.764458 465.997742,86.567543 465.997742,105.684341 
	C445.974823,105.684341 426.256378,105.684341 406.268188,105.684341 
	C406.268188,85.998337 406.268188,66.397102 406.268188,46.000046 
	C424.539429,46.000046 442.945038,46.000046 461.832092,46.000206 
z"/>
<path fill="#982B1C" opacity="1.000000" stroke="none" 
	d="
M93.984161,301.000000 
	C98.119331,301.000000 101.757957,301.000000 105.694824,301.000000 
	C105.694824,321.044586 105.694824,340.761200 105.694824,360.739563 
	C85.984337,360.739563 66.385033,360.739563 46.392372,360.739563 
	C46.392372,341.133301 46.392372,321.415405 46.392372,301.000000 
	C61.985691,301.000000 77.736656,301.000000 93.984161,301.000000 
z"/>
<path fill="#982B1C" opacity="1.000000" stroke="none" 
	d="
M135.006989,361.000000 
	C130.205795,361.000000 125.902817,361.000000 121.301804,361.000000 
	C121.301804,340.948822 121.301804,321.232391 121.301804,301.257355 
	C141.021622,301.257355 160.620712,301.257355 180.610382,301.257355 
	C180.610382,320.872223 180.610382,340.589813 180.610382,361.000000 
	C165.675476,361.000000 150.590363,361.000000 135.006989,361.000000 
z"/>
</svg>