<svg version="1.1" id="Layer_1" xmlns="http://www.w3.org/2000/svg" xmlns:xlink="http://www.w3.org/1999/xlink" x="0px" y="0px"
	 width="100%" viewBox="0 0 510 510" enable-background="new 0 0 510 510" xml:space="preserve">
<path fill="#F2E8C6" opacity="1.000000" stroke="none" 
	d="
M511.000000,127.000000 
	C511.000000,255.302002 511.000000,383.104004 511.000000,510.953003 
	C341.072998,510.953003 171.145996,510.953003 1.109496,510.953003 
	C1.109496,341.114716 1.109496,171.229355 1.109496,1.171995 
	C170.999847,1.171995 340.999908,1.171995 511.000000,1.171995 
	C511.000000,42.853928 511.000000,84.676964 511.000000,127.000000 
M494.095245,16.025482 
	C336.053314,16.017117 178.011414,16.008448 19.969488,16.007257 
	C18.973934,16.007250 17.978380,16.111237 16.476034,16.112644 
	C16.372911,16.401541 16.269789,16.690439 16.025484,17.904755 
	C16.017118,175.946655 16.008442,333.988556 16.007261,492.030457 
	C16.007254,493.026001 16.111238,494.021576 16.112617,495.523926 
	C16.401508,495.627075 16.690397,495.730225 17.904726,495.974518 
	C175.946640,495.982880 333.988556,495.991577 492.030457,495.992798 
	C493.026001,495.992798 494.021576,495.888824 495.523956,495.887390 
	C495.627106,495.598480 495.730225,495.309570 495.974518,494.095245 
	C495.983032,342.230164 495.993774,190.365097 495.992859,38.500011 
	C495.992798,31.327600 495.888916,24.155191 495.887360,16.476011 
	C495.598450,16.372898 495.309570,16.269785 494.095245,16.025482 
z"/>
<path fill="#982B1C" opacity="1.000000" stroke="none" 
	d="
M16.166664,495.017120 
	C16.111238,494.021576 16.007254,493.026001 16.007261,492.030457 
	C16.008442,333.988556 16.017118,175.946655 16.263302,17.340496 
	C16.709974,16.611204 16.870543,16.408012 16.982826,16.166664 
	C17.978380,16.111237 18.973934,16.007250 19.969488,16.007257 
	C178.011414,16.008448 336.053314,16.017117 494.659485,16.263304 
	C495.388763,16.710022 495.591949,16.870573 495.833374,16.982780 
	C495.888916,24.155191 495.992798,31.327600 495.992859,38.500011 
	C495.993774,190.365097 495.983032,342.230164 495.736725,494.659546 
	C495.290039,495.388824 495.129425,495.592010 495.017120,495.833374 
	C494.021576,495.888824 493.026001,495.992798 492.030457,495.992798 
	C333.988556,495.991577 175.946640,495.982880 17.340488,495.736694 
	C16.611212,495.289978 16.408016,495.129395 16.166664,495.017120 
M180.499115,180.221893 
	C180.290253,180.387741 180.129547,180.591568 179.086929,180.974091 
	C129.829437,180.974091 80.571930,180.974091 31.360275,180.974091 
	C31.360275,211.344269 31.360275,241.063950 31.360275,270.598511 
	C111.435165,270.598511 191.149246,270.598511 270.734497,270.598511 
	C270.734497,190.600601 270.734497,111.004448 270.734497,31.314194 
	C240.748749,31.314194 211.029495,31.314194 181.000000,31.314194 
	C181.000000,47.265038 181.016953,62.903755 180.996506,78.542419 
	C180.952301,112.367226 180.888916,146.192017 180.499115,180.221893 
M285.499115,285.221863 
	C285.290283,285.387726 285.129608,285.591583 284.087006,285.974121 
	C199.830887,285.974121 115.574760,285.974121 31.360106,285.974121 
	C31.360106,316.342010 31.360106,346.062653 31.360106,375.598633 
	C146.434616,375.598633 261.148651,375.598633 375.734558,375.598633 
	C375.734558,260.600952 375.734558,146.004807 375.734558,31.315556 
	C345.747894,31.315556 316.027679,31.315556 286.000000,31.315556 
	C286.000000,33.603146 286.000000,35.577835 286.000000,37.552525 
	C286.000000,118.044418 286.001221,198.536301 285.993042,279.028198 
	C285.992828,281.024384 285.888916,283.020569 285.499115,285.221863 
M390.499115,390.221863 
	C390.290283,390.387726 390.129608,390.591583 389.087006,390.974121 
	C269.842072,390.974121 150.597122,390.974121 31.340441,390.974121 
	C31.340441,421.306580 31.340441,451.024902 31.340441,480.638123 
	C181.382202,480.638123 331.083252,480.638123 481.000000,480.638123 
	C481.000000,478.123962 481.000000,475.970581 481.000000,473.817200 
	C481.000000,329.346191 480.999939,184.875214 481.000427,40.404209 
	C481.000427,38.904541 480.572601,37.232826 481.086670,35.935562 
	C483.099121,30.857201 480.047241,30.965717 476.533997,30.972288 
	C449.539490,31.022787 422.544891,30.995808 395.550293,31.011948 
	C394.115906,31.012806 392.681610,31.185877 391.000000,31.294794 
	C391.000000,33.640766 391.000000,35.619556 391.000000,37.598351 
	C391.000000,152.908539 391.000885,268.218719 390.993042,383.528900 
	C390.992889,385.691528 390.888916,387.854126 390.499115,390.221863 
M117.500000,166.000000 
	C133.587784,166.000000 149.675568,166.000000 165.609039,166.000000 
	C165.609039,120.588646 165.609039,75.871872 165.609039,31.258389 
	C120.619095,31.258389 76.020546,31.258389 31.302553,31.258389 
	C31.302553,76.233490 31.302553,120.949631 31.302553,166.000000 
	C59.902527,166.000000 88.201263,166.000000 117.500000,166.000000 
z"/>
<path fill="#982B1C" opacity="1.000000" stroke="none" 
	d="
M495.860352,16.729397 
	C495.591949,16.870573 495.388763,16.710022 495.122192,16.333899 
	C495.309570,16.269785 495.598450,16.372898 495.860352,16.729397 
z"/>
<path fill="#982B1C" opacity="1.000000" stroke="none" 
	d="
M16.729431,16.139654 
	C16.870543,16.408012 16.709974,16.611204 16.333893,16.877785 
	C16.269789,16.690439 16.372911,16.401541 16.729431,16.139654 
z"/>
<path fill="#982B1C" opacity="1.000000" stroke="none" 
	d="
M16.139641,495.270508 
	C16.408016,495.129395 16.611212,495.289978 16.877768,495.666138 
	C16.690397,495.730225 16.401508,495.627075 16.139641,495.270508 
z"/>
<path fill="#982B1C" opacity="1.000000" stroke="none" 
	d="
M495.270538,495.860382 
	C495.129425,495.592010 495.290039,495.388824 495.666138,495.122253 
	C495.730225,495.309570 495.627106,495.598480 495.270538,495.860382 
z"/>
<path fill="#F2E8C6" opacity="1.000000" stroke="none" 
	d="
M390.833374,390.016754 
	C390.888916,387.854126 390.992889,385.691528 390.993042,383.528900 
	C391.000885,268.218719 391.000000,152.908539 391.000000,37.598351 
	C391.000000,35.619556 391.000000,33.640766 391.000000,31.294794 
	C392.681610,31.185877 394.115906,31.012806 395.550293,31.011948 
	C422.544891,30.995808 449.539490,31.022787 476.533997,30.972288 
	C480.047241,30.965717 483.099121,30.857201 481.086670,35.935562 
	C480.572601,37.232826 481.000427,38.904541 481.000427,40.404209 
	C480.999939,184.875214 481.000000,329.346191 481.000000,473.817200 
	C481.000000,475.970581 481.000000,478.123962 481.000000,480.638123 
	C331.083252,480.638123 181.382202,480.638123 31.340441,480.638123 
	C31.340441,451.024902 31.340441,421.306580 31.340441,390.974121 
	C150.597122,390.974121 269.842072,390.974121 389.806152,390.930237 
	C390.627991,390.596466 390.730682,390.306610 390.833374,390.016754 
M430.500000,106.000000 
	C442.254120,106.000000 454.008240,106.000000 465.611267,106.000000 
	C465.611267,85.591148 465.611267,65.873772 465.611267,46.256172 
	C445.622681,46.256172 426.023804,46.256172 406.300293,46.256172 
	C406.300293,66.229782 406.300293,85.945969 406.300293,106.000000 
	C414.230927,106.000000 421.865479,106.000000 430.500000,106.000000 
z"/>
<path fill="#F2E8C6" opacity="1.000000" stroke="none" 
	d="
M285.833374,285.016754 
	C285.888916,283.020569 285.992828,281.024384 285.993042,279.028198 
	C286.001221,198.536301 286.000000,118.044418 286.000000,37.552525 
	C286.000000,35.577835 286.000000,33.603146 286.000000,31.315556 
	C316.027679,31.315556 345.747894,31.315556 375.734558,31.315556 
	C375.734558,146.004807 375.734558,260.600952 375.734558,375.598633 
	C261.148651,375.598633 146.434616,375.598633 31.360106,375.598633 
	C31.360106,346.062653 31.360106,316.342010 31.360106,285.974121 
	C115.574760,285.974121 199.830887,285.974121 284.806152,285.930237 
	C285.627991,285.596466 285.730682,285.306610 285.833374,285.016754 
M83.499962,361.000000 
	C90.924408,361.000000 98.348854,361.000000 105.609276,361.000000 
	C105.609276,340.587128 105.609276,320.869690 105.609276,301.258179 
	C85.618683,301.258179 66.019783,301.258179 46.302307,301.258179 
	C46.302307,321.233826 46.302307,340.950012 46.302307,361.000000 
	C58.567863,361.000000 70.533920,361.000000 83.499962,361.000000 
M181.000000,320.500427 
	C181.000000,314.075012 181.000000,307.649628 181.000000,301.391083 
	C160.586243,301.391083 140.868561,301.391083 121.258545,301.391083 
	C121.258545,321.382050 121.258545,340.980957 121.258545,360.697296 
	C141.234589,360.697296 160.950790,360.697296 181.000000,360.697296 
	C181.000000,347.431610 181.000000,334.465912 181.000000,320.500427 
z"/>
<path fill="#F2E8C6" opacity="1.000000" stroke="none" 
	d="
M180.833374,180.016800 
	C180.888916,146.192017 180.952301,112.367226 180.996506,78.542419 
	C181.016953,62.903755 181.000000,47.265038 181.000000,31.314194 
	C211.029495,31.314194 240.748749,31.314194 270.734497,31.314194 
	C270.734497,111.004448 270.734497,190.600601 270.734497,270.598511 
	C191.149246,270.598511 111.435165,270.598511 31.360275,270.598511 
	C31.360275,241.063950 31.360275,211.344269 31.360275,180.974091 
	C80.571930,180.974091 129.829437,180.974091 179.806076,180.930206 
	C180.627930,180.596497 180.730652,180.306656 180.833374,180.016800 
z"/>
<path fill="#F2E8C6" opacity="1.000000" stroke="none" 
	d="
M117.000000,166.000000 
	C88.201263,166.000000 59.902527,166.000000 31.302553,166.000000 
	C31.302553,120.949631 31.302553,76.233490 31.302553,31.258389 
	C76.020546,31.258389 120.619095,31.258389 165.609039,31.258389 
	C165.609039,75.871872 165.609039,120.588646 165.609039,166.000000 
	C149.675568,166.000000 133.587784,166.000000 117.000000,166.000000 
M132.499420,151.000000 
	C138.593079,151.000000 144.686722,151.000000 150.607574,151.000000 
	C150.607574,115.585220 150.607574,80.868233 150.607574,46.259869 
	C115.615929,46.259869 81.017258,46.259869 46.304047,46.259869 
	C46.304047,81.236671 46.304047,115.952843 46.304047,151.000000 
	C74.904381,151.000000 103.201965,151.000000 132.499420,151.000000 
z"/>
<path fill="#982B1C" opacity="1.000000" stroke="none" 
	d="
M180.666245,180.119354 
	C180.730652,180.306656 180.627930,180.596497 180.271118,180.859848 
	C180.129547,180.591568 180.290253,180.387741 180.666245,180.119354 
z"/>
<path fill="#982B1C" opacity="1.000000" stroke="none" 
	d="
M285.666260,285.119324 
	C285.730682,285.306610 285.627991,285.596466 285.271179,285.859863 
	C285.129608,285.591583 285.290283,285.387726 285.666260,285.119324 
z"/>
<path fill="#982B1C" opacity="1.000000" stroke="none" 
	d="
M390.666260,390.119324 
	C390.730682,390.306610 390.627991,390.596466 390.271179,390.859863 
	C390.129608,390.591583 390.290283,390.387726 390.666260,390.119324 
z"/>
<path fill="#982B1C" opacity="1.000000" stroke="none" 
	d="
M430.000000,106.000000 
	C421.865479,106.000000 414.230927,106.000000 406.300293,106.000000 
	C406.300293,85.945969 406.300293,66.229782 406.300293,46.256172 
	C426.023804,46.256172 445.622681,46.256172 465.611267,46.256172 
	C465.611267,65.873772 465.611267,85.591148 465.611267,106.000000 
	C454.008240,106.000000 442.254120,106.000000 430.000000,106.000000 
z"/>
<path fill="#982B1C" opacity="1.000000" stroke="none" 
	d="
M82.999969,361.000000 
	C70.533920,361.000000 58.567863,361.000000 46.302307,361.000000 
	C46.302307,340.950012 46.302307,321.233826 46.302307,301.258179 
	C66.019783,301.258179 85.618683,301.258179 105.609276,301.258179 
	C105.609276,320.869690 105.609276,340.587128 105.609276,361.000000 
	C98.348854,361.000000 90.924408,361.000000 82.999969,361.000000 
z"/>
<path fill="#982B1C" opacity="1.000000" stroke="none" 
	d="
M181.000000,321.000305 
	C181.000000,334.465912 181.000000,347.431610 181.000000,360.697296 
	C160.950790,360.697296 141.234589,360.697296 121.258545,360.697296 
	C121.258545,340.980957 121.258545,321.382050 121.258545,301.391083 
	C140.868561,301.391083 160.586243,301.391083 181.000000,301.391083 
	C181.000000,307.649628 181.000000,314.075012 181.000000,321.000305 
z"/>
<path fill="#982B1C" opacity="1.000000" stroke="none" 
	d="
M131.999481,151.000000 
	C103.201965,151.000000 74.904381,151.000000 46.304047,151.000000 
	C46.304047,115.952843 46.304047,81.236671 46.304047,46.259869 
	C81.017258,46.259869 115.615929,46.259869 150.607574,46.259869 
	C150.607574,80.868233 150.607574,115.585220 150.607574,151.000000 
	C144.686722,151.000000 138.593079,151.000000 131.999481,151.000000 
z"/>
</svg>